<?xml version="1.0" encoding="UTF-8"?>
<svg id="Calque_2" data-name="Calque 2" xmlns="http://www.w3.org/2000/svg" viewBox="0 0 90.58 106.11">
  <defs>
    <style>
      .cls-1 {
        fill: #00c6a0;
      }
    </style>
  </defs>
  <g id="Calque_1-2" data-name="Calque 1">
    <g>
      <path d="M84.37,17.08l-1.62-.92c-3.77-2.14-8.45-2.13-12.21,.04l-5.97,3.44v-6.44c0-4.41-2.38-8.5-6.21-10.68l-1.62-.92c-3.77-2.14-8.45-2.13-12.21,.04L6.15,23.78c-3.79,2.19-6.15,6.26-6.15,10.64v13.78c0,4.38,2.36,8.46,6.16,10.65l19.85,11.42v22.55c0,4.4,2.38,8.49,6.2,10.67l1.8,1.03c1.88,1.07,3.98,1.61,6.08,1.61s4.26-.55,6.15-1.65l38.21-22.12c3.78-2.19,6.13-6.26,6.13-10.63V27.75c0-4.41-2.38-8.5-6.21-10.68ZM8.82,54.21c-2.14-1.23-3.47-3.54-3.47-6.01v-13.78c0-2.47,1.33-4.77,3.47-6L47.21,6.27c2.12-1.22,4.76-1.23,6.89-.02l1.62,.92c2.16,1.23,3.51,3.54,3.51,6.03v9.53l-27.08,15.62c-3.79,2.19-6.15,6.26-6.15,10.64v15.11l-17.18-9.88Zm76.41,17.51c0,2.46-1.33,4.76-3.46,6l-38.21,22.12c-2.13,1.23-4.77,1.24-6.91,.02l-1.8-1.03c-2.16-1.23-3.5-3.54-3.5-6.02v-19.47l2.63,1.51c1.89,1.09,4.01,1.63,6.12,1.63s4.26-.55,6.15-1.65l12.18-7.05c3.78-2.19,6.13-6.26,6.13-10.63V25.81l8.64-4.98c2.12-1.22,4.76-1.23,6.89-.02l1.62,.92c2.16,1.23,3.51,3.54,3.51,6.03v43.96Z"/>
      <path class="cls-1" d="M2.68,77.04v1.21c0,3.45,1.85,6.64,4.85,8.35h0c3.87,2.2,8.74,1.46,11.78-1.79l.1-.11c1.66-1.78,2.59-4.12,2.59-6.56v-1.04c0-3.44-1.84-6.62-4.82-8.33l-.1-.06c-6.4-3.68-14.39,.94-14.39,8.33Z"/>
    </g>
  </g>
</svg>