<?xml version="1.0" encoding="UTF-8"?>
<svg id="Calque_2" data-name="Calque 2" xmlns="http://www.w3.org/2000/svg" viewBox="0 0 372.76 212.8">
  <defs>
    <style>
      .cls-1 {
        stroke: #000;
        stroke-miterlimit: 10;
      }

      .cls-2 {
        fill: #00c6a0;
      }
    </style>
  </defs>
  <g id="Calque_1-2" data-name="Calque 1">
    <g>
      <g>
        <path d="M225.46,17.08l-1.62-.92c-3.77-2.14-8.45-2.13-12.21,.04l-5.97,3.44v-6.44c0-4.41-2.38-8.5-6.21-10.68l-1.62-.92c-3.77-2.14-8.45-2.13-12.21,.04l-38.39,22.14c-3.79,2.19-6.15,6.26-6.15,10.64v13.78c0,4.38,2.36,8.46,6.16,10.65l19.85,11.42v22.55c0,4.4,2.38,8.49,6.2,10.67l1.8,1.03c1.88,1.07,3.98,1.61,6.08,1.61s4.26-.55,6.15-1.65l38.21-22.12c3.78-2.19,6.13-6.26,6.13-10.63V27.75c0-4.41-2.38-8.5-6.21-10.68Zm-75.55,37.13c-2.14-1.23-3.47-3.54-3.47-6.01v-13.78c0-2.47,1.33-4.77,3.47-6L188.3,6.27c2.12-1.22,4.76-1.23,6.89-.02l1.62,.92c2.16,1.23,3.51,3.54,3.51,6.03v9.53l-27.08,15.62c-3.79,2.19-6.15,6.26-6.15,10.64v15.11l-17.18-9.88Zm76.41,17.51c0,2.46-1.33,4.76-3.46,6l-38.21,22.12c-2.13,1.23-4.77,1.24-6.91,.02l-1.8-1.03c-2.16-1.23-3.5-3.54-3.5-6.02v-19.47l2.63,1.51c1.89,1.09,4.01,1.63,6.12,1.63s4.26-.55,6.15-1.65l12.18-7.05c3.78-2.19,6.13-6.26,6.13-10.63V25.81l8.64-4.98c2.12-1.22,4.76-1.23,6.89-.02l1.62,.92c2.16,1.23,3.51,3.54,3.51,6.03v43.96Z"/>
        <path class="cls-2" d="M143.76,77.04v1.21c0,3.45,1.85,6.64,4.85,8.35h0c3.87,2.2,8.74,1.46,11.78-1.79l.1-.11c1.66-1.78,2.59-4.12,2.59-6.56v-1.04c0-3.44-1.84-6.62-4.82-8.33l-.1-.06c-6.4-3.68-14.39,.94-14.39,8.33Z"/>
      </g>
      <g>
        <path d="M41.8,132.38v10.11c0,4.52-3.67,8.19-8.19,8.19h-9.05c-4.52,0-8.19-3.67-8.19-8.19v-10.11c0-4.52-3.67-8.19-8.19-8.19h0c-4.52,0-8.19,3.67-8.19,8.19v51.04c0,4.52,3.67,8.19,8.19,8.19h0c4.52,0,8.19-3.67,8.19-8.19v-9.92c0-4.52,3.67-8.19,8.19-8.19h9.05c4.52,0,8.19,3.67,8.19,8.19v9.92c0,4.52,3.67,8.19,8.19,8.19h0c4.52,0,8.19-3.67,8.19-8.19v-51.04c0-4.52-3.67-8.19-8.19-8.19h0c-4.52,0-8.19,3.67-8.19,8.19Z"/>
        <path d="M120,165.22c.13-3.72-.39-7.16-1.54-10.31-1.16-3.14-2.83-5.87-5.01-8.19-2.18-2.31-4.77-4.11-7.75-5.39-2.99-1.28-6.28-1.93-9.87-1.93-3.79,0-7.27,.66-10.45,1.97-3.18,1.32-5.92,3.18-8.23,5.59-2.31,2.41-4.11,5.25-5.39,8.52-1.29,3.27-1.93,6.87-1.93,10.79,0,5.07,1.16,9.58,3.47,13.53,2.31,3.95,5.55,7.06,9.73,9.34,4.17,2.28,9.08,3.42,14.74,3.42,2.31,0,4.64-.27,6.98-.82,2.34-.54,4.64-1.36,6.89-2.46,2.25-1.09,4.37-2.5,6.36-4.24l-7.22-10.21c-1.99,1.54-3.84,2.63-5.54,3.27-1.7,.64-3.65,.96-5.83,.96-3.15,0-5.86-.58-8.14-1.73-2.28-1.16-4.01-2.78-5.2-4.86-.55-.96-.95-2.01-1.25-3.13h35.1l.1-4.14Zm-34.38-7.08c.9-1.89,2.23-3.34,4-4.33,1.76-.99,3.9-1.49,6.4-1.49,1.8,0,3.4,.35,4.81,1.06,1.41,.71,2.55,1.69,3.42,2.94s1.36,2.68,1.49,4.29v.1h-20.98c.22-.92,.49-1.78,.86-2.55Z"/>
        <path d="M129.92,191.61V120.34h15.41v71.27h-15.41Z"/>
        <path d="M209.42,152.27c-1.96-3.95-4.64-7.06-8.04-9.34-3.4-2.28-7.29-3.42-11.65-3.42-2.95,0-5.76,.53-8.43,1.59-2.66,1.06-4.86,2.46-6.6,4.19-.25,.25-.46,.51-.68,.77l-.28-5.59h-14.64v72.33h15.51v-26.39c1.8,1.86,4.01,3.34,6.64,4.43,2.63,1.09,5.39,1.64,8.28,1.64,4.43,0,8.36-1.14,11.8-3.42,3.43-2.28,6.13-5.41,8.09-9.39,1.96-3.98,2.94-8.54,2.94-13.68s-.98-9.78-2.94-13.72Zm-13.53,20.85c-.96,1.99-2.31,3.55-4.05,4.67-1.73,1.12-3.76,1.69-6.07,1.69s-4.43-.56-6.16-1.69c-1.73-1.12-3.08-2.68-4.05-4.67-.96-1.99-1.44-4.36-1.44-7.13s.48-5.07,1.44-7.13c.96-2.05,2.31-3.63,4.05-4.72,1.73-1.09,3.79-1.64,6.16-1.64s4.41,.56,6.12,1.69c1.7,1.12,3.03,2.7,4,4.72,.96,2.02,1.44,4.38,1.44,7.08s-.48,5.14-1.44,7.13Z"/>
        <g>
          <path class="cls-1" d="M259.02,146.78c-1.96-2.02-4.29-3.56-6.98-4.62s-5.65-1.59-8.86-1.59c-3.47,0-6.65,.63-9.53,1.88-2.89,1.25-5.38,3.02-7.46,5.3-2.09,2.28-3.71,4.99-4.86,8.14-1.16,3.15-1.73,6.61-1.73,10.4,0,5.07,1.04,9.6,3.13,13.58,2.09,3.98,4.99,7.1,8.72,9.34,3.72,2.25,8.03,3.37,12.91,3.37,2.44,0,4.73-.31,6.89-.92,2.15-.61,4.14-1.44,5.97-2.5,1.83-1.06,3.55-2.33,5.15-3.8l-1.16-1.73c-2.25,2.12-4.78,3.79-7.61,5.01-2.83,1.22-5.91,1.83-9.25,1.83-4.43,0-8.33-1.03-11.7-3.08-3.37-2.05-6.02-4.91-7.95-8.57-1.93-3.66-2.92-7.83-2.99-12.52,0-.07,0-.13,0-.19h43.04l.1-2.5c.13-3.53-.32-6.71-1.35-9.53-1.03-2.82-2.52-5.25-4.48-7.27Zm-34.53,7.32c1.8-3.56,4.32-6.36,7.56-8.38,3.24-2.02,7.05-3.03,11.41-3.03,3.53,0,6.76,.85,9.68,2.55,2.92,1.7,5.25,4.09,6.98,7.17,1.73,3.08,2.6,6.68,2.6,10.79l-.06,.77h-40.85c.3-3.63,1.19-6.92,2.67-9.87Z"/>
          <path class="cls-1" d="M293.06,140.57c-3.21,0-5.99,.64-8.33,1.93-2.34,1.29-4.21,2.91-5.59,4.86-.96,1.35-1.67,2.75-2.18,4.18l-.08-10.49h-1.93v50.56h2.12v-32.55c0-1.73,.32-3.55,.96-5.44,.64-1.89,1.6-3.68,2.89-5.35,1.28-1.67,2.9-3.02,4.86-4.04,1.96-1.03,4.22-1.54,6.79-1.54,.71,0,1.52,.06,2.46,.19,.93,.13,1.91,.35,2.94,.67l.67-2.21c-.77-.26-1.62-.45-2.55-.58-.93-.13-1.94-.19-3.03-.19Z"/>
          <polygon class="cls-1" points="311.06 189.49 341.31 143.75 341.31 141.05 308.76 141.05 308.76 143.17 339.01 143.17 308.76 189.11 308.76 191.61 343.33 191.61 343.33 189.49 311.06 189.49"/>
        </g>
        <path class="cls-2" d="M353.44,180.79v1.21c0,3.45,1.85,6.64,4.85,8.35h0c3.87,2.2,8.74,1.46,11.78-1.79l.1-.11c1.66-1.78,2.59-4.12,2.59-6.56v-1.04c0-3.44-1.84-6.62-4.82-8.33l-.1-.06c-6.4-3.68-14.39,.94-14.39,8.33Z"/>
      </g>
    </g>
  </g>
</svg>